<?xml version="1.0" encoding="UTF-8"?>
<svg id="Layer_1" xmlns="http://www.w3.org/2000/svg" version="1.1" viewBox="119.23 56.68 151.77 155.67">
  <defs>
    <style>
      .st0 { fill: #0071bc; }
    </style>
  </defs>
  <g id="Isotipo_Centrado">
    <path class="st0" d="M256.65,56.68c-.9-.73-2.04-1.02-3.18-.79-.58.12-58.1,11.91-114.21,11.02-1.07-.31-2.24-.16-3.2.48-.29.17-.61.36-.86.61-.74.73-1.19,1.72-1.19,2.75v116.35c0,1.15.55,2.23,1.43,2.97,1.19,1,29.85,24.26,89.16,24.94.34.1.7.17,1.06.17,2.13,0,3.87-1.71,3.88-3.85l.38-109.48c0-1.88-1.34-3.49-3.19-3.81-16.23-2.87-56.61-11.88-76.92-23.38,44.02-.52,87.19-7.73,100.19-10.3v115c0,2.13,1.87,3.86,4,3.86s4-1.73,4-3.86V59.67c0-1.16-.45-2.26-1.35-2.99ZM222.34,105.04l-.43,102.19c-47.49-1.18-73.91-17.72-79.91-22.06v-106.57c21,14.38,67.6,24,80.34,26.44Z"/>
    <path class="st0" d="M180.5,137.22c-3.65,0-6.5,2.96-6.5,6.6v33.59c0,3.65,2.85,6.6,6.5,6.6s6.5-2.96,6.5-6.6v-33.59c0-3.65-2.85-6.6-6.5-6.6Z"/>
    <path class="st0" d="M180.9,129.12c4.61,0,8.34-3.74,8.34-8.34s-3.73-8.33-8.34-8.33-8.33,3.74-8.33,8.33,3.74,8.34,8.33,8.34Z"/>
  </g>
</svg>
